<svg xmlns="http://www.w3.org/2000/svg" viewBox="0 0 400 400" height="999" width="999"><g transform="matrix(2,0,0,2,0,0)"><title>startup</title><g><path d="M104.21,37.63A22.72,22.72,0,0,0,82.92,18.31,30.9,30.9,0,0,0,66.2,22.7C56,28.65,51.8,42.51,55.69,52.94a3.92,3.92,0,0,0-3.29,3.5c0,5.25,6.79,7.86,8.65,4.34,8,7,24.46,7.91,35.91-2.08C102.53,53.7,105.29,45,104.21,37.63Zm-15.38.77c-1.72,1.1-4.47-.15-4.61-2.15a19.87,19.87,0,0,0,5.34-3A3.71,3.71,0,0,1,88.83,38.4Z" fill="#fff4ee"></path><g><path d="M63.7,56.62h0Z" fill="#fffda9"></path><path d="M80.07,10.22c1,1.95-1.49,3.85-3.6,4.39-4.09,1-8.47.74-12.47,2.09-6.31,2.12-12,9.59-10.43,16.48a2,2,0,0,1,.08,1A2.06,2.06,0,0,1,53,35c-3.85,3.68-4,10.71-.93,15.34-2.43,5.52-6.9,6.72-11,9A31.8,31.8,0,0,0,25.92,78.16c3.8-2.31,8.76-1.46,12.81.4s7.65,4.63,11.85,6.18c7.94,2.91,16.78,1,21.7-3.9C76,77,77.07,71.42,77.1,66.1a30.1,30.1,0,0,1-10-1.78,19.57,19.57,0,0,1-6-3.54c-1.86,3.52-8.69.91-8.65-4.34a4,4,0,0,1,2.2-3.18,13.77,13.77,0,0,0,8.73,3.36C56.44,56.34,61,43.51,61,40.49a13.78,13.78,0,0,0-1.13-4.68,100.71,100.71,0,0,0,17.84-10c2.87-2,5.93-4.35,7-7.74S83.62,10.14,80.07,10.22Z" fill="#fffda9"></path></g><path d="M68.42,101.17,50.77,80.8a8.19,8.19,0,0,0-4.48-1.31,1.51,1.51,0,0,1,1,.5l17.65,20.38a1.49,1.49,0,0,1-.15,2.09l-14.5,13.17a1.47,1.47,0,0,1-1.08.35c1.12.52,4,.92,4.53.45l14.5-13.16A1.49,1.49,0,0,0,68.42,101.17Z" fill="#a2cccb"></path><path d="M48.23,115.49,30.58,95.11a1.49,1.49,0,0,1,.15-2.1L45.22,79.84a1.51,1.51,0,0,1,2.1.15L65,100.37a1.49,1.49,0,0,1-.15,2.09l-14.5,13.17A1.49,1.49,0,0,1,48.23,115.49Z" fill="#dfeded"></path><path d="M111.92,78.31a3.8,3.8,0,0,0-2.1-3.08c-1.36-.56-2.9,0-4.26.59C93.78,80.74,87.09,83.3,79.23,95.44c-1.35,5-2.7,10-3.65,15a3.11,3.11,0,0,0,.06,2,2.32,2.32,0,0,0,2.89.91A6.24,6.24,0,0,0,81,111.27c3.58-4.43,6.48-9.38,10.06-13.8,3-3.73,7.37-9.16,12.44-9.64.31,1.08.53,2.19.77,3.3a2.43,2.43,0,0,0,.35.94c2.91,3.93,6.52-8.82,6.8-9.91A10.24,10.24,0,0,0,111.92,78.31Z" fill="#fedaf6"></path><path d="M84.11,112,96,100.39l-36.37,19.1a1.82,1.82,0,0,0-.16,3.2A49.41,49.41,0,0,0,73,128.43C74.36,121.79,79.21,116.86,84.11,112Z" fill="#fffda9"></path><path d="M111.44,149.09a24.42,24.42,0,0,1-6.55,5.51c1.36,8.83,1.46,10.23,2.51,13.64,1.23,4.3,4.9-2.76,5.64-4.49q6.66-15.52,13.31-31.06Q119,141,111.44,149.09Z" fill="#fffda9"></path><path d="M113.82,38.94a2.71,2.71,0,0,0-.6-1.35c-1.44-1.31-3.34-.28-4.64,1.17-1.49,1.47-2.91,3-4.27,4.6C103.72,49.14,101.13,55,97,58.7a29.94,29.94,0,0,1-20.27,7.39c-.25,1.14-.44,2.29-.6,3.45A80.8,80.8,0,0,0,60.17,86.49a1.82,1.82,0,0,0-.42.91c-.08.93,1.1,1.44,2,1.42,2.46-.06,4.59-1.63,6.53-3.13l7.47-5.78A140.83,140.83,0,0,0,78,97.38C83,88.79,91.39,80.77,100.93,78c-2.88-2.17-3.91-4.5-4.53-8.06-.29-1.67-.52-3.35-.68-5,6-5.4,11.8-11.17,16-18.1C113.11,44.39,114.37,41.66,113.82,38.94Z" fill="#abffe1"></path><circle cx="72.68" cy="39.83" r="4.63" fill="#ffcecc"></circle><g><path d="M47.41,159.47l.19.31C47.53,159.68,47.47,159.57,47.41,159.47Z" fill="#e57676"></path><path d="M97.84,156.16c-.55,0-1.1,0-1.65-.07C85,155.32,74.7,148,72.78,136.64c-2.92.43-6.43.58-8.19,3-.83,1.14-1.1,2.61-1.89,3.78-2.64,3.88-7,2.2-10.66,3.52-4.79,1.7-7.11,8.15-4.63,12.54-2.1-4,7.14-5.91,5.19-.19a8.19,8.19,0,0,1-2.24,3c-1.64,1.63-3.22,3.51-3.57,5.79-.67,4.22,3.07,8.31,1.49,12.43-.76,2-3.35,3.35-5.09,2.14.66.46,1.17,2.89,1.84,3.67a8.74,8.74,0,0,0,3.55,2.44c2.58,1.14,6.17,1.75,7.9-1.12.91-1.51.88-3.39,1.42-5.07s2.19-3.33,3.85-2.74c2,.71,2,3.86,3.87,4.86a3.26,3.26,0,0,0,3.75-1c.72-.78,1.32-1.87,2.37-2,1.66-.25,2.54,2.27,1.54,3.62s-2.84,1.67-4.5,1.83a6.51,6.51,0,0,0,10.8-1.85c.53-1.28.65-2.71,1.25-4s2-2.34,3.29-1.93a16.39,16.39,0,0,1,1.51.76c5,2,5.15-5.85,4.65-8.52a3.34,3.34,0,0,1,0-1.93,3.4,3.4,0,0,1,1.56-1.32,12.07,12.07,0,0,0,5.94-9.22C97.87,158.15,97.84,157.15,97.84,156.16Z" fill="#e57676"></path></g><path d="M98.24,156.15h-1c0,.54,0,1.08,0,1.61a11.85,11.85,0,0,1-3.66,8.7A13.9,13.9,0,0,1,91,168.3a2.51,2.51,0,0,0-1.43,2.19c0,.71.24,1.4.3,2.11a14.45,14.45,0,0,1-.15,3.83,4.9,4.9,0,0,1-1.47,3.11,2.09,2.09,0,0,1-1.49.37c-1-.11-1.65-.79-2.54-1-2.17-.65-3.75,1.52-4.3,3.3A15,15,0,0,1,78.61,186a6,6,0,0,1-8.75,1.49,5.29,5.29,0,0,0,3.81-1.94c1.3-1.95-.18-4.94-2.35-4.29a4.15,4.15,0,0,0-1.91,1.58,3.8,3.8,0,0,1-2.45,1.7c-2.69.19-2.42-3.52-4.56-4.84-1.64-1-3.46.1-4.39,1.53-1.2,1.83-.86,4.18-1.89,6.07a4.13,4.13,0,0,1-4.31,2,10.39,10.39,0,0,1-5.73-2.51,6.81,6.81,0,0,1-1.72-3.14c2.72.32,5.12-2.55,4.81-5.59-.11-2.27-1.08-4.35-1.61-6.53a6.92,6.92,0,0,1,1.11-6.4c1.78-2.57,5.49-4.41,4.62-8.06-.79-2.35-4.62-2.19-6.15-.08a8.74,8.74,0,0,1,3.57-8.65A9,9,0,0,1,55,147a23.5,23.5,0,0,0,4.42-.52A6.24,6.24,0,0,0,63,144c1.08-1.46,1.28-3.45,2.69-4.69a8.7,8.7,0,0,1,4.51-1.7c.89-.15,1.78-.28,2.66-.41-.07-.36-.13-.71-.18-1.07-.67.11-1.34.22-2,.29a13.33,13.33,0,0,0-4.91,1.44,5.77,5.77,0,0,0-1.7,1.6,17.26,17.26,0,0,0-1.26,2.64A5.52,5.52,0,0,1,59,145.39a40.18,40.18,0,0,1-4.64.53c-6.54.41-10.33,7.64-7.56,13.46a2.92,2.92,0,0,0,.4.76c.34.53,1.2,0,.86-.51-.09-.17-.2-.38-.28-.55a2,2,0,0,1,1.33-2.59c1-.42,2.74-.5,3.15.79.76,4.27-5.83,5.41-6.08,11.7a19.13,19.13,0,0,0,1.31,5.83c.57,1.88,1.13,4.27,0,6.06-.82,1.31-2.65,2.25-4.08,1.31-.47-.3-1,.43-.6.79a1.34,1.34,0,0,1,.11.14v0l.05,0c.82,1.08.56,1.79,1.62,3.41a9.91,9.91,0,0,0,4.52,3,8.36,8.36,0,0,0,4.58.57,4.7,4.7,0,0,0,3.53-2.93c.77-1.82.55-4,1.74-5.68a2.54,2.54,0,0,1,2.33-1.25,2.44,2.44,0,0,1,1.56,1.38c.68,1.22,1.11,2.73,2.4,3.46,1.58.9,3.5.06,4.6-1.2.52-.62,1.17-1.76,2.11-1.71.76,0,1.14.93,1.19,1.58.16,2.23-2.78,2.72-4.42,2.88a.5.5,0,0,0-.35.85c4,4.17,11.14,2.41,12.24-4.16a5.17,5.17,0,0,1,1.77-3.16,1.78,1.78,0,0,1,1.53-.29c.58.17,1.06.6,1.64.82a3.89,3.89,0,0,0,2,.23c2.71-.48,3.21-4.1,3.3-6.32a17.1,17.1,0,0,0-.31-4.06c0-1.26,1.44-1.67,2.31-2.27a12.55,12.55,0,0,0,5.25-8.55A28.73,28.73,0,0,0,98.24,156.15Z" fill="#fffda9"></path><path d="M89.45,154.87a25.56,25.56,0,0,1-13.47-10,27.55,27.55,0,0,0-5.73,1.3,3.33,3.33,0,0,0-1.67,1.26c-1,1.72.78,3.88.37,5.83-.44,2.13-3,2.84-5.16,3.35s-4.63,2-4.17,4.12a3.82,3.82,0,0,0,1.77,2.21,22.48,22.48,0,0,1,3,2.09,3.48,3.48,0,0,1,1.24,3.26c-.61,2.21-3.75,2.46-5.23,4.2a8.08,8.08,0,0,0,10.42-1.39c.93-1.06,1.62-2.45,2.94-2.92s3,.27,4.37.85,3.26.89,4.27-.24a3.81,3.81,0,0,0,.73-1.69,20.08,20.08,0,0,0,.47-5.73,5.82,5.82,0,0,0,5.94-5.69A4.47,4.47,0,0,0,89.45,154.87Z" fill="#fffda9"></path><path d="M102.25,124c-.24.22-.48.46-.7.7a3.85,3.85,0,0,0,3.89,3.1l.65-.73A7.46,7.46,0,0,1,102.25,124Z" fill="#abffe1"></path><path d="M99.5,127.38a2.26,2.26,0,0,0-.47,1.23,3,3,0,0,0,2.67,2.31,2.4,2.4,0,0,0,1.4-.6A4.27,4.27,0,0,1,99.5,127.38Z" fill="#abffe1"></path><path d="M100.77,125.61c-.17.22-.33.44-.49.67a2.81,2.81,0,0,0,1.19,2.28,3.28,3.28,0,0,0,2.64.7l.48-.52A4.82,4.82,0,0,1,100.77,125.61Z" fill="#abffe1"></path><path d="M115.63,108.55A7.64,7.64,0,0,0,105.8,113c-1.28,3.39-.49,7.64-2.67,10.47a5.75,5.75,0,0,0,.46.64,23.54,23.54,0,0,0,2.44-3c.09-.13.22-.16.2-.44s-.3-.55-.42-.79a1.09,1.09,0,0,1,.44-1.55,1.44,1.44,0,0,1,1.68.46c.43.55.54,1.27,1.07,1.75a3.11,3.11,0,0,0,1.7.65.9.9,0,0,1,.47,1.48c-.45.47-1.18.38-1.76.53a5.43,5.43,0,0,0-3,2.84l.38.13a5.92,5.92,0,0,1,4.23-2.49c2-.4,4.17-.4,6-1.59A7.64,7.64,0,0,0,115.63,108.55Z" fill="#abffe1"></path><path d="M104.28,124.83a6.76,6.76,0,0,0,1.19.85,6.66,6.66,0,0,1,3.2-3.23,5.92,5.92,0,0,1,1.6-.28c.15,0,.08-.09,0-.1a3.18,3.18,0,0,1-2.67-2,2.26,2.26,0,0,0-.45-.8c-.59-.49-.33.08-.33.18a1.93,1.93,0,0,1,.42,1.58A21.43,21.43,0,0,1,104.28,124.83Z" fill="#abffe1"></path><path d="M150.43,102.15a29.27,29.27,0,0,1-29-26.87L84.11,112c-4.22,4.15-8.53,8.5-10.53,14.06a21.86,21.86,0,0,0,3.69,20.54,26.73,26.73,0,0,0,18.92,9.45,18,18,0,0,0,8.59-1.43,24.42,24.42,0,0,0,6.66-5.57q21.21-22.68,40.58-47A9.37,9.37,0,0,1,150.43,102.15ZM113,92.6c.14-.63,1.12-.36,1,.27a19.1,19.1,0,0,0,0,7.47c.09.63-.87.89-1,.26A18.93,18.93,0,0,1,113,92.6Zm4.76,30.18a11.92,11.92,0,0,1-5.53,1.72,7.81,7.81,0,0,0-3.85,1.34c-1,.82-.9,1.68-4.47,5.08-1.84,2-5,.73-5.84-1.8-.36-1.36.76-2.63,1.5-3.63,2-2.81,2.77-2.25,3.48-4.07a22.61,22.61,0,0,0,1-5.26c.29-4.3,2.91-8.1,7.24-9A8.63,8.63,0,0,1,121.4,114,8.86,8.86,0,0,1,117.77,122.78ZM124,105.42l5.76-5.37c.47-.44,1.18.27.71.71l-5.77,5.37C124.19,106.57,123.48,105.86,124,105.42Zm12.15,10.8c-2.92,1.31-7.6,1.11-7.3,0a.51.51,0,0,1,.63-.37,9.23,9.23,0,0,0,6.17-.44.5.5,0,1,1,.5.86Z" fill="#abffe1"></path><path d="M171,48.21c-5.16-.11-35.3,12.89-43.07,16a11.78,11.78,0,0,0-3.68,1.93c-2.67,2.12-3.09,6-2.78,9.4a29.27,29.27,0,0,0,29,26.61,9.61,9.61,0,0,0,5.54-1.29c2-1.38,3-3.89,3.74-6.21,2.63-8,16.73-41.21,13.46-45.57A2.68,2.68,0,0,0,171,48.21Z" fill="#fedaf6"></path><path d="M132.22,48.75a1.87,1.87,0,0,1-1.94-.4,2.17,2.17,0,0,1-.36-1.08l-.44-2.85c-.38,3.27-1,5.29-4.3,5.29a7.94,7.94,0,0,1,3.13.78,2.88,2.88,0,0,1,1.58,2.56,5.23,5.23,0,0,1,4.33-4.66A5.7,5.7,0,0,0,132.22,48.75Z" fill="#ffe7ab"></path><path d="M134.26,47.89c-1.84-.06-2.19.8-3.41.29-.49-.31-.47-1.17-.54-1.68L130,44.27c-.1-.6-.93-.37-1,.14-.4,2.84-.76,4.78-3.82,4.79-.66,0-.62.93,0,1,1.65.19,4.3.67,4.25,2.87,0,.65.93.64,1,0a4.76,4.76,0,0,1,4-4.18C135,48.79,134.78,48,134.26,47.89Zm-4.38,3.35a4.2,4.2,0,0,0-2.46-1.65c2-1.14,1.49-1.66,1.91-2.76l.06.39a2.38,2.38,0,0,0,.84,1.77,1.88,1.88,0,0,0,1,.34A5.68,5.68,0,0,0,129.88,51.24Z" fill="#efac54"></path><path d="M151.56,134.41a3.22,3.22,0,0,1-2.37-2.39,9.53,9.53,0,0,1-.09-3.53c-.69,3.66-1.73,6.69-5.52,6.75l3.16,1.64a2.11,2.11,0,0,1,1.1,1c.32.85-.37,2.18.47,2.52a5.91,5.91,0,0,1,5.83-5.62C153.44,134.23,152.43,134.56,151.56,134.41Z" fill="#ffe7ab"></path><path d="M154.37,134.32a3.11,3.11,0,0,0-1.93-.4,2.46,2.46,0,0,1-2-.67c-1.26-1.23-1-3.19-.87-4.79.06-.56-.88-.68-1-.13a21.75,21.75,0,0,1-1.62,4.91,4.8,4.8,0,0,1-3.37,1.47.5.5,0,0,0-.26.93l2.31,1.22c.54.28,1.56.6,1.75,1.26.27.91-.47,2.11.66,2.68a.5.5,0,0,0,.75-.43,5.37,5.37,0,0,1,5.33-5.12A.5.5,0,0,0,154.37,134.32Zm-6,3.7a2,2,0,0,0-.46-.91,7.1,7.1,0,0,0-1.78-1.09l-1-.53a4.44,4.44,0,0,0,3.5-3.67,3.76,3.76,0,0,0,2.82,3.09A6.44,6.44,0,0,0,148.37,138Z" fill="#efac54"></path><path d="M58.58,83l-4.25,3.68,1.31,1.48,2.6-2.25a.63.63,0,0,1,.89.06L62.65,90a.74.74,0,0,1-.07,1L60,93.24l1.3,1.49,4.25-3.65a.72.72,0,0,0,.08-1l-6.06-7A.7.7,0,0,0,58.58,83Z" fill="#dfeded"></path><path d="M75.53,33.2a2.41,2.41,0,1,0,2.4,2.4A2.4,2.4,0,0,0,75.53,33.2Z" fill="#5e503b"></path><path d="M87.45,39.31a3.62,3.62,0,0,0,3.35-3.7,4.36,4.36,0,0,0-.58-2.32.49.49,0,0,0-.07-.58c-.27-.27-.56-.14-.82.07a18.82,18.82,0,0,1-5.24,3,.54.54,0,0,0-.37.48A3.57,3.57,0,0,0,87.45,39.31Zm2-5.37a3.34,3.34,0,0,1-.15,3.36,2.57,2.57,0,0,1-4.48-.73A21.19,21.19,0,0,0,89.44,33.94Z" fill="#5e503b"></path><path d="M173.87,49.19c-1.32-2.2-4.29-1.51-6.79-.72-11.31,3.58-19.25,7-36.49,14.08-2.24.92-4.82,1.62-6.69,3.19-2.66,2.23-3.18,6-3,9.34l-9.74,9.6c.26-.82.51-1.65.73-2.48.53-2,1-4.32-.3-6.15s-3.42-1.86-5.38-1.14-3.77,1.46-5.63,2.24c-1.89-1.6-3.29-3.82-3.8-7.61-.25-1.47-.44-2.94-.59-4.42,5.71-5.08,11.14-10.52,15.25-17a17.79,17.79,0,0,0,2.91-6.6c.27-1.81.13-4.63-2.16-5s-3.89,1.75-5.25,3.18c-.69.72-1.37,1.45-2,2.2A23.19,23.19,0,0,0,85.23,18c1-3.81-1.41-8.28-5.16-8.27a.51.51,0,0,0-.44.75c.82,1.79-1.75,3.26-3.13,3.61-5.45,1.4-8.31.48-13.27,2.36C57,18.87,51.59,26.29,53.12,33.36a1.16,1.16,0,0,1,0,.93,17.16,17.16,0,0,0-1.32,1.49c-2.83,3.68-3.2,10.09-.27,14.7-1.69,3.6-4.52,5.36-8.12,7.13A32.57,32.57,0,0,0,29.76,69a31.74,31.74,0,0,0-4.29,9,.5.5,0,0,0,.73.56c5.19-3,11.53-.41,16.65,2.76L30.4,92.63a2,2,0,0,0-.2,2.81l17.65,20.38a2,2,0,0,0,1.23.65c1.05.45,4.18,1,5,.33l14.49-13.15a2,2,0,0,0,.24-2.8L62.9,94l3-2.58A1.23,1.23,0,0,0,66,89.75l-1.1-1.26c2.18-1.14,5-3.48,10.34-7.63A156.87,156.87,0,0,0,77.5,97.52a.5.5,0,0,0,.57.35c-1.08,4-2.11,8-2.93,12.18a3.66,3.66,0,0,0-.16.8L59.41,119a2.3,2.3,0,0,0-.54,3.83,15.9,15.9,0,0,0,2.9,1.71,49.43,49.43,0,0,0,10.53,4.16c-2.56,12.8,7.07,26,22.1,27.77a20.33,20.33,0,0,0,9.07-.71q.52-.21,1-.45c1,6.63,1.16,8.37,2.38,12.67.3,2,1.79,3.05,3.75.86,2.43-2.72,3.59-6.46,5-9.75l11.2-26.2c9-10.18,17.73-20.7,25.39-30.37a15.28,15.28,0,0,0,2.49-.51c3.45-1.23,4.61-4.65,5.72-7.81,3-8.57,12.15-30.12,13.67-41.15A7.52,7.52,0,0,0,173.87,49.19Zm-66.05-9A15.11,15.11,0,0,1,110.2,38c.85-.54,2.21-.81,2.81.24a5.29,5.29,0,0,1,.29,3.26,17.83,17.83,0,0,1-2.72,6.14c-3.91,5.77-7.35,9.82-14.47,16.23-.1-1.2-.17-2.4-.2-3.6a23.83,23.83,0,0,0,3-2.73,24.53,24.53,0,0,0,6-14.06C105.79,42.34,106.79,41.26,107.82,40.19ZM103.76,38a24.83,24.83,0,0,1-3.52,16c-7.71,12.31-28,15.5-38.6,6.69a3.62,3.62,0,0,0,.17-.56c.12-.63-.86-.9-1-.27a2.73,2.73,0,0,1-3.25,2c-3.05-.64-5.63-3.65-4.35-6.56a3.09,3.09,0,0,1,1.3-1.44,14.31,14.31,0,0,0,9.18,3.27.5.5,0,0,0,0-1,3.16,3.16,0,0,1-3-1.57A7.76,7.76,0,0,1,60,50.71c.46-6,1.41-8.3,1.46-10.22a13.44,13.44,0,0,0-1-4.42,105,105,0,0,0,16.88-9.38c2.76-1.93,6.2-4.45,7.55-7.69A22.24,22.24,0,0,1,103.76,38Zm-52.44.4a8.7,8.7,0,0,1,1.34-2.25c.52-.63,1.37-1.16,1.5-2,.06-1-.26-1.18-.33-2.7-.35-6.17,4.91-12.7,10.75-14.39s10.34-.69,13.82-2.69c1.33-.76,2.56-2,2.36-3.57,3.59.68,5.2,6.45,1.82,10.17A29.64,29.64,0,0,1,76.4,26.1a103,103,0,0,1-16.84,9.23.49.49,0,0,0-.23.56c2.54,5.35-.17,7.88-.31,15.16a8.27,8.27,0,0,0,.84,4.06,4,4,0,0,0,.46.62A13,13,0,0,1,51.32,38.38ZM26.74,77.17a31.52,31.52,0,0,1,9.5-13.93,38.07,38.07,0,0,1,8-4.94c3.41-1.7,6.16-3.57,7.9-6.94a13.65,13.65,0,0,0,1.59,1.8A4.59,4.59,0,0,0,52,57.52a6.59,6.59,0,0,0,6.53,5.37,3.5,3.5,0,0,0,2.7-1.41A24.88,24.88,0,0,0,76,66.58c-.18.9-.32,1.79-.44,2.69A82.41,82.41,0,0,0,61.21,84.18L60,82.77a1.21,1.21,0,0,0-1.69-.19l-3,2.63c-4.37-5-4.12-4.76-4.22-4.83-1.57-1-4.81-2-6.16-.91l-1.29,1.18C38.45,77.53,32.2,74.73,26.74,77.17ZM61.32,89.25l.94,1.1a.22.22,0,0,1,0,.3L61,91.78l-3.74-4.31,1.36-1.18a.12.12,0,0,1,.18,0l.58.67C59,88.18,60.08,89.17,61.32,89.25Zm-4.87-1.13,3.74,4.32-.49.42a.49.49,0,0,0-.16.48l-4.08-4.71a.53.53,0,0,0,.51-.09Zm-8.27-7.9a7.63,7.63,0,0,1,2.26,1l4.06,4.69c-.55.48-.65.52-.67.78S54.51,87.53,48.18,80.22Zm.42,34.94L31,94.78a1,1,0,0,1,.11-1.4L45.54,80.22a1,1,0,0,1,1.37.1L64.56,100.7a1,1,0,0,1-.11,1.39L50,115.25A1,1,0,0,1,48.6,115.16ZM68,101.5a1,1,0,0,1-.14,1.4L53.42,116.05a6.38,6.38,0,0,1-2.68-.13l14.4-13.09a2,2,0,0,0,.21-2.79l-4.2-4.84a.5.5,0,0,0,.5-.09l.49-.42ZM65.25,90.7,61.38,94l-.64-.74,2.18-1.89A1.24,1.24,0,0,0,63,89.7L59.5,85.64a1.13,1.13,0,0,0-1.59-.11l-2.22,1.93L55,86.73c2.26-2,3.7-3.22,3.89-3.37a.2.2,0,0,1,.29,0l6,7A.21.21,0,0,1,65.25,90.7Zm11-10.59,4-3.06c.51-.39-.2-1.09-.7-.7C65.74,87,66,86.92,64.21,87.64l-2.34-2.7A80.77,80.77,0,0,1,77.8,68.77a.56.56,0,0,0,.1-.76c-.34-.5-.7,0-1.15.35.09-.59.2-1.18.32-1.76A30.23,30.23,0,0,0,94.92,61a69.94,69.94,0,0,0,1,9.24,15.16,15.16,0,0,0,1.47,4.55,11.67,11.67,0,0,0,2.47,3c-9,3-16.59,10.13-21.56,18.18A138.2,138.2,0,0,1,76.24,80.11Zm.38,27.63c.91-4.15,2-8.11,3.12-12.28C84.62,87.9,92.51,81,101,78.46a.51.51,0,0,0,.35-.56c1-.39,1.91-.76,2.84-1.15,1.66-.65,4-2.11,5.78-1s1.55,3.57,1.14,5.33a49.26,49.26,0,0,1-1.62,5.27L104.76,91c-.33-1.13-.47-2.33-.8-3.47a.5.5,0,0,0-.48-.37c-3.47.37-6.34,2.64-8.71,5.06-4.64,5-6.76,8.41-10.5,13.73l-8.2,4.31C76.22,109.42,76.44,108.57,76.62,107.74Zm19-7.72L86.18,105q3.42-5,7.3-9.7c2.49-2.91,5.67-6.38,9.69-7,.23.94.56,2.8.81,3.47ZM60.35,122.66a2.82,2.82,0,0,1-1.12-.87,1.41,1.41,0,0,1,.68-1.89c.38-.18-3.14,1.66,33.22-17.44-11.78,11.6-12.94,12.57-16,16.38a24.32,24.32,0,0,0-4.61,9A49.33,49.33,0,0,1,60.35,122.66Zm49.52,45.47c-.56.87-1.41,1.54-1.86.39-1.18-3.34-1.7-8.08-2.56-13.68a21.12,21.12,0,0,0,5.36-4.34c4.61-5.1,9.31-10.05,13.87-15.17C112.66,163.39,112,165.61,109.87,168.13ZM114.58,145c-2.14,2.4-4.34,4.75-6.69,7a14.34,14.34,0,0,1-8.41,3.65,26.16,26.16,0,0,1-16.19-4.13c-9.77-6.21-13.77-19.43-7.11-29.51,3.19-4.86,1.88-3.28,44.88-45.59a29.69,29.69,0,0,0,27.64,26.22,14.2,14.2,0,0,0,2.16.1C133.8,124,121.91,136.74,114.58,145ZM173.21,51.6c-.55,9.64-11.23,35.21-12.92,40.1-.69,2-1.38,4-2.23,5.89a6.61,6.61,0,0,1-4.12,3.65,17.53,17.53,0,0,1-6,.25A29.19,29.19,0,0,1,122.83,80c-.89-3.44-1.47-7.56,0-10.93a7.3,7.3,0,0,1,3.89-3.76c.65-.35,26.42-10.8,31.18-12.58,6.49-2.44,13.14-5.3,15-3.22A4.68,4.68,0,0,1,173.21,51.6Z" fill="#5e503b"></path><path d="M163.92,99.69C149.14,116.4,140.3,127,131.22,138c-.41.49.3,1.21.71.71,11.75-14.29,21.66-25.69,32.74-38.27.42-.48-.28-1.19-.71-.71Z" fill="#fffda9"></path><path d="M173.58,95.31a254.73,254.73,0,0,1-19.7,23.16c-.45.46.26,1.17.7.71a249.64,249.64,0,0,0,19.87-23.32c.39-.51-.48-1-.87-.5Z" fill="#fffda9"></path><path d="M60.11,129.54C52.44,138.86,32.24,162.43,30,165c-.43.48.28,1.19.7.71,8-9.11,28-32.84,30.16-35.49C61.22,129.75,60.52,129,60.11,129.54Z" fill="#fffda9"></path><path d="M39.9,143.1c-.44.47.27,1.18.71.7l16.11-17.31c.44-.47-.27-1.18-.71-.71C56,125.88,56.44,125.38,39.9,143.1Z" fill="#fffda9"></path><circle cx="96.35" cy="27.81" r="4.63" fill="#ffcecc"></circle><path d="M91.26,30.07a2.41,2.41,0,1,0-2.41-2.41A2.4,2.4,0,0,0,91.26,30.07Z" fill="#5e503b"></path></g></g></svg>